<?xml version="1.0" standalone="no"?>
<svg viewBox="0 0 200 200" xmlns="http://www.w3.org/2000/svg">
  <path fill="#2F0A0D" d="M35.4,-59.6C48.4,-53.8,63.2,-49.4,71.9,-39.7C80.5,-30,83.1,-15,84.2,0.6C85.3,16.3,84.9,32.5,75.8,41.5C66.7,50.6,49,52.4,34.9,55.2C20.9,57.9,10.4,61.6,-2.5,65.9C-15.3,70.1,-30.7,74.9,-44,71.8C-57.4,68.6,-68.7,57.4,-69.4,44.1C-70.1,30.8,-60.1,15.4,-61.2,-0.6C-62.2,-16.6,-74.3,-33.3,-71.6,-42.9C-68.8,-52.6,-51.1,-55.2,-36.7,-60.2C-22.3,-65.3,-11.1,-72.7,0,-72.8C11.2,-72.8,22.4,-65.5,35.4,-59.6Z" transform="translate(100 100)" />
</svg>
