<?xml version="1.0" standalone="no"?>
<svg viewBox="0 0 200 200" xmlns="http://www.w3.org/2000/svg">
  <path fill="#FFFFFF" d="M33.7,-59.9C38.5,-55.5,33.9,-36.2,35.7,-23.7C37.6,-11.2,45.9,-5.6,50.7,2.7C55.4,11.1,56.6,22.2,48.7,24.3C40.9,26.4,24,19.4,14.4,21.8C4.8,24.3,2.4,36.1,-2.6,40.6C-7.6,45.1,-15.1,42.2,-21.9,38.1C-28.6,34,-34.5,28.7,-35,22.1C-35.5,15.6,-30.6,7.8,-36.2,-3.2C-41.8,-14.3,-57.9,-28.5,-55.4,-31.6C-52.9,-34.6,-31.7,-26.5,-19.4,-26.5C-7.1,-26.6,-3.5,-34.8,5.4,-44.2C14.4,-53.6,28.8,-64.2,33.7,-59.9Z" transform="translate(100 100)" />
</svg>
